<svg xmlns="http://www.w3.org/2000/svg" id="Outline_Icons" style="" viewBox="0 0 27.7 27.5" x="0px" y="0px" width="19" height="19" xmlns:xml="http://www.w3.org/XML/1998/namespace" xml:space="preserve" version="1.1">
                                        <g>
                                            <g>
                                                <path d="M 6.6 24.7 c -1.2 0 -2.4 -0.5 -3.4 -1.4 c -1.9 -1.9 -1.9 -4.9 0 -6.7 l 12 -12 c 1.2 -1.2 2.8 -1.8 4.4 -1.8 s 3.2 0.7 4.4 1.8 c 1.2 1.2 1.8 2.7 1.8 4.4 s -0.7 3.2 -1.8 4.4 l -8.5 8.5 c -0.3 0.3 -0.8 0.3 -1.1 0 s -0.3 -0.8 0 -1.1 l 8.5 -8.5 c 0.9 -0.9 1.4 -2.1 1.4 -3.4 S 23.9 6.6 23 5.7 c -0.9 -0.9 -2.1 -1.4 -3.4 -1.4 c -1.3 0 -2.5 0.5 -3.4 1.4 l -12 12 C 3 18.9 3 21 4.3 22.3 c 1.3 1.3 3.3 1.3 4.6 0 l 11.5 -11.5 c 0.5 -0.5 0.5 -1.3 0 -1.8 c -0.5 -0.5 -1.3 -0.5 -1.8 0 l -8.5 8.5 c -0.3 0.3 -0.8 0.3 -1.1 0 s -0.3 -0.8 0 -1.1 l 8.5 -8.5 c 1 -1 2.8 -1 3.9 0 c 1.1 1.1 1.1 2.8 0 3.9 L 9.9 23.3 C 9 24.3 7.8 24.7 6.6 24.7 Z" />
                                            </g>
                                        </g>
                                        </svg>